# xmcd
#
# Track frame offsets: 
#        150
#        20363
#        40551
#        56544
#        72790
#        87590
#        105666
#        121985
#        137274
#        150074
#        165842
#        183097
#        203431
#        220594
#        239837
#        258478
#        278059
#        295200
#
# Disc length: 4176 seconds
#
# Revision: 0
# Processed by: cddbd v1.5.2PL0 Copyright (c) Steve Scherf et al.
# Submitted via: ExactAudioCopy v0.95b3
#
DISCID=e5104e12
DTITLE=Various Artist - Rhythm Radio 2006 11
DYEAR=2006
DGENRE=R&B
TTITLE0=Ciara - Promise
TTITLE1=Bow Wow ft. Chris Brown and Johnta Austin - Shortie Like Mine
TTITLE2=Pink - U and Ur Hand
TTITLE3=Chingy ft. Jermaine Dupri - Dem Jeans
TTITLE4=Nelly Furtado - Maneater
TTITLE5=Christina Aguilera - Hurt
TTITLE6=Game, the - Let's Ride
TTITLE7=Mic Little ft. Ne-Yo - Put It In A Letter
TTITLE8="Weird Al" Yankovic - White and Nerdy
TTITLE9=Cherish - Unappreciated
TTITLE10=Xzibit - Concentrate
TTITLE11=Lloyd ft. Lil' Wayne - You
TTITLE12=RBD - Tu Amor
TTITLE13=Brooke Valentine ft. Dem Franchize Boyz - Pimped Out
TTITLE14=Fat Joe ft. Lil' Wayne - Make It Rain On 'Em
TTITLE15=Ying Yang Twins ft. Wycelf - Dangerous
TTITLE16=Crime Mob ft. Lil' Scrappy - Rock Yo Hips (PO Clean Edit)
TTITLE17=Bone Thugs-N-Harmony - Just Vibe (PO Clean Edit)
EXTD=
EXTT0=
EXTT1=
EXTT2=
EXTT3=
EXTT4=
EXTT5=
EXTT6=
EXTT7=
EXTT8=
EXTT9=
EXTT10=
EXTT11=
EXTT12=
EXTT13=
EXTT14=
EXTT15=
EXTT16=
EXTT17=
PLAYORDER=
